# xmcd
#
# Track frame offsets: 
#        150
#        12107
#        22842
#        37365
#        50262
#        63022
#        79082
#        91670
#        105132
#        119457
#        135985
#        151270
#        168200
#        179970
#        193665
#        208090
#        224432
#        238350
#        250052
#        264760
#
# Disc length: 3753 seconds
#
# Revision: 1
# Processed by: cddbd v1.4PL0 Copyright (c) Steve Scherf et al.
# Submitted via: ExactAudioCopy v0.90b2
#
DISCID=050ea714
DTITLE=John Schneider - Too Good To Stop Now - Tryin' To Outrun The Wi
DTITLE=nd 
DYEAR=1900
DGENRE=Country
TTITLE0=I've Been Around Enough To Know
TTITLE1=What'll You Do About Me
TTITLE2=Country Girls
TTITLE3=Low Class Reunion
TTITLE4=Too Good To Stop Now
TTITLE5=The Time Of My Life
TTITLE6=Trouble
TTITLE7=The Party Of The First Part
TTITLE8=I'm Your Man
TTITLE9=Hollywood Heroes
TTITLE10=It's A Short Walk From Heaven To Hell
TTITLE11=I'm Gonna Leave You Tomorrow
TTITLE12=He's Back In Texas
TTITLE13=Say Hello To Goodbye
TTITLE14=Why Did You Say I Do To Me
TTITLE15=Tryin' To Outrun The Wind
TTITLE16=Leavin's Been Comin' (For A Long, Long Time)
TTITLE17=I Don't Feel Much Like A Cowboy Tonight
TTITLE18=Bad Case Of Love
TTITLE19=Honeymoon Wine
EXTD=
EXTT0=
EXTT1=
EXTT2=
EXTT3=
EXTT4=
EXTT5=
EXTT6=
EXTT7=
EXTT8=
EXTT9=
EXTT10=
EXTT11=
EXTT12=
EXTT13=
EXTT14=
EXTT15=
EXTT16=
EXTT17=
EXTT18=
EXTT19=
PLAYORDER=
